<?xml version="1.0" encoding="UTF-8"?>
<svg version="1.1" xmlns="http://www.w3.org/2000/svg" width="1024" height="1024">
<path d="M0 0 C7.48161512 7.10845499 14.13468103 14.54361192 19.92553711 23.09350586 C20.35560059 23.72417969 20.78566406 24.35485352 21.22875977 25.00463867 C23.4743047 28.42911753 24.69823348 31.20571178 25.36303711 35.21850586 C24.48010986 35.79459595 24.48010986 35.79459595 23.5793457 36.38232422 C8.73789968 46.06919691 -6.08119252 55.78969705 -20.88696289 65.53100586 C-22.14274139 66.35711868 -22.14274139 66.35711868 -23.42388916 67.19992065 C-25.83362484 68.78528551 -28.24315484 70.37096237 -30.65258789 71.95678711 C-31.72931259 72.66525284 -31.72931259 72.66525284 -32.82778931 73.38803101 C-36.7728342 75.98538648 -40.70970549 78.59432811 -44.63696289 81.21850586 C-48.07099396 79.81267651 -49.44234378 78.38363109 -51.32446289 75.21850586 C-59.80686184 62.01896236 -71.7575674 51.51588226 -86.63696289 46.21850586 C-87.72493164 45.82663086 -88.81290039 45.43475586 -89.93383789 45.03100586 C-105.1938355 40.39505722 -122.96579019 40.68562602 -138.63696289 43.21850586 C-138.96696289 43.87850586 -139.29696289 44.53850586 -139.63696289 45.21850586 C-141.30171975 45.56124992 -142.96876056 45.89294501 -144.63696289 46.21850586 C-153.87236397 50.50955234 -161.08519528 57.0518176 -164.91821289 66.60131836 C-168.42863091 79.38381876 -166.44390502 89.57535145 -160.17211914 100.83569336 C-158.8079826 102.95305541 -157.4036718 104.45707071 -155.63696289 106.21850586 C-155.63696289 106.87850586 -155.63696289 107.53850586 -155.63696289 108.21850586 C-155.08782227 108.46987305 -154.53868164 108.72124023 -153.97290039 108.98022461 C-151.63696289 110.21850586 -151.63696289 110.21850586 -149.23852539 111.92553711 C-131.91938144 124.17621767 -110.67880649 130.9956919 -91.13525391 138.94335938 C-89.21915572 139.72257196 -87.30305872 140.50178746 -85.38696289 141.28100586 C-84.43667206 141.66731171 -83.48638123 142.05361755 -82.5072937 142.45162964 C-34.2825232 162.07785224 15.85100636 183.85020178 38.36303711 234.21850586 C44.86846496 250.09484765 47.55038117 266.24032371 47.54833984 283.29760742 C47.55051008 285.318335 47.56867227 287.33850054 47.58764648 289.35913086 C47.63787888 323.5841388 35.19247394 352.07959582 11.36303711 376.21850586 C-19.55307627 407.18440364 -65.7715788 416.45979351 -107.92523193 416.65576172 C-124.64863506 416.65716998 -141.14585321 416.24080423 -157.63696289 413.21850586 C-158.61310547 413.04158203 -159.58924805 412.8646582 -160.5949707 412.68237305 C-205.65129478 404.24251163 -247.89597523 382.68094465 -274.38696289 344.21850586 C-286.63696289 326.08582306 -286.63696289 326.08582306 -286.63696289 322.21850586 C-285.24536133 321.14379883 -285.24536133 321.14379883 -283.24633789 319.96069336 C-282.48869141 319.50839355 -281.73104492 319.05609375 -280.95043945 318.59008789 C-280.10449219 318.09621582 -279.25854492 317.60234375 -278.38696289 317.09350586 C-277.50234375 316.56998535 -276.61772461 316.04646484 -275.70629883 315.50708008 C-266.96089391 310.35541041 -258.14286434 305.32771305 -249.31713867 300.31518555 C-243.42805121 296.96878674 -237.55706838 293.59748134 -231.72290039 290.15600586 C-230.63332031 289.5138916 -229.54374023 288.87177734 -228.42114258 288.21020508 C-226.36945813 286.99790374 -224.32046205 285.78103682 -222.2746582 284.55883789 C-217.81856306 281.92782062 -213.68533851 279.55235761 -208.63696289 278.21850586 C-208.08008789 279.04092773 -207.52321289 279.86334961 -206.94946289 280.71069336 C-197.73812929 294.24358267 -197.73812929 294.24358267 -186.63696289 306.21850586 C-186.03883789 306.81018555 -185.44071289 307.40186523 -184.82446289 308.01147461 C-164.54121367 327.28801845 -135.29826382 332.75867493 -108.24243164 332.43334961 C-90.33346339 331.93596408 -70.77430548 328.16918908 -57.53930664 315.15600586 C-50.46605795 306.7461985 -47.83304138 297.62826705 -48.19165039 286.71459961 C-49.73711961 274.58131055 -56.37147373 266.47975955 -65.57446289 259.03100586 C-83.53266325 246.08955863 -104.23367089 237.62416455 -124.53070068 229.10443115 C-130.61054661 226.54715729 -136.67783185 223.96024569 -142.74423218 221.37127686 C-144.93078203 220.4405609 -147.1201689 219.51681844 -149.31005859 218.59399414 C-158.95416527 214.50675229 -168.31463184 209.99094418 -177.63696289 205.21850586 C-179.23312462 204.41864257 -180.82943815 203.61908197 -182.42602539 202.82006836 C-194.91979254 196.44256884 -205.80809044 188.7597201 -216.51196289 179.71850586 C-217.12579834 179.2018335 -217.73963379 178.68516113 -218.37207031 178.15283203 C-219.83498873 176.88761099 -221.2420346 175.55831541 -222.63696289 174.21850586 C-222.63696289 173.55850586 -222.63696289 172.89850586 -222.63696289 172.21850586 C-223.62696289 171.88850586 -224.61696289 171.55850586 -225.63696289 171.21850586 C-248.19343792 148.19626291 -256.92044418 115.47064899 -256.88354492 84.05883789 C-256.50342637 52.35278486 -245.90264704 22.95539256 -224.16821289 -0.34790039 C-167.52519819 -54.80561359 -56.75244737 -52.79361365 0 0 Z " fill="#FEE84C" transform="translate(738.636962890625,330.781494140625)"/>
<path d="M0 0 C0.81926971 0.00359528 1.63853943 0.00719055 2.4826355 0.01089478 C3.34109573 0.01074875 4.19955597 0.01060272 5.08403015 0.01045227 C7.93559249 0.0111517 10.78709036 0.01894547 13.63864136 0.02676392 C15.61019353 0.02862799 17.58174615 0.03005194 19.55329895 0.03105164 C24.75324778 0.03487765 29.95316886 0.04470865 35.15310669 0.05575562 C40.45492172 0.06596794 45.75674121 0.07054887 51.05856323 0.07559204 C61.46938274 0.08633084 71.88018162 0.10340826 82.29098511 0.12442017 C83.52861851 2.59968697 83.41632625 4.22798313 83.41682625 6.99757576 C83.42073787 8.55192556 83.42073787 8.55192556 83.42472851 10.13767636 C83.42138243 11.85879566 83.42138243 11.85879566 83.41796875 13.61468506 C83.41952874 14.82704862 83.42108873 16.03941217 83.42269599 17.28851402 C83.4260063 20.66551045 83.42479868 24.04245166 83.42170978 27.4194448 C83.41945495 31.05877613 83.42293619 34.6981025 83.4256897 38.33743286 C83.43014951 45.4800449 83.42916883 52.62264646 83.42627706 59.76525892 C83.42401856 65.58587616 83.42371247 71.40649046 83.42480087 77.227108 C83.42495411 78.05575698 83.42510734 78.88440596 83.42526522 79.73816552 C83.42558496 81.42195305 83.42590918 83.10574059 83.42623781 84.78952812 C83.42909456 100.61095735 83.42580528 116.4323808 83.42043744 132.25380908 C83.41599395 145.76650919 83.41672452 159.27920069 83.4213562 172.79190063 C83.42674146 188.51026071 83.42879387 204.22861567 83.42574394 219.94697654 C83.42542544 221.63373748 83.42511107 223.32049843 83.42480087 225.00725937 C83.4246466 225.83692791 83.42449232 226.66659644 83.42433337 227.52140645 C83.42347813 233.30527896 83.42490996 239.08914817 83.42728043 244.87302017 C83.43012381 251.96691067 83.42924777 259.06079015 83.42399968 266.15467943 C83.42141872 269.75958811 83.42025842 273.36447862 83.42364883 276.96938705 C83.43629347 291.74551236 83.29808648 306.50806278 82.86102295 321.27746582 C82.82438195 322.57516942 82.78774096 323.87287302 82.74998963 325.20990098 C81.76031488 355.51638816 76.50185059 385.39862156 56.29098511 409.12442017 C55.19463745 410.4450647 55.19463745 410.4450647 54.07614136 411.79238892 C37.5307257 431.01298601 13.82262099 442.04128841 -10.70901489 447.12442017 C-11.4191272 447.27250122 -12.1292395 447.42058228 -12.86087036 447.57315063 C-54.04875566 455.76136922 -100.07534452 449.94342708 -135.70901489 427.12442017 C-139.22142645 424.63666056 -142.48002301 421.96703696 -145.70901489 419.12442017 C-146.51467896 418.45024048 -147.32034302 417.77606079 -148.15042114 417.08145142 C-163.34706541 404.02517958 -174.44586118 387.29422777 -182.70901489 369.12442017 C-175.15339494 364.19987896 -167.55183343 359.38514218 -159.79934692 354.77627563 C-155.23138936 352.05402767 -150.70190029 349.27450483 -146.18557739 346.46743774 C-143.51679406 344.80898652 -140.84369412 343.15767553 -138.16995239 341.50723267 C-134.45258193 339.21148533 -130.75324441 336.88934568 -127.06057739 334.55410767 C-125.25628139 333.4310826 -123.45160741 332.30866451 -121.64651489 331.18692017 C-120.80773804 330.64833374 -119.96896118 330.10974731 -119.10476685 329.55484009 C-118.32319214 329.07377808 -117.54161743 328.59271606 -116.73635864 328.09707642 C-115.71143311 327.45137695 -115.71143311 327.45137695 -114.665802 326.79263306 C-112.70901489 326.12442017 -112.70901489 326.12442017 -110.58938599 326.80361938 C-107.58549038 328.91360059 -106.14480267 332.0438194 -104.39651489 335.18692017 C-103.59683031 336.55757564 -102.79344311 337.92607763 -101.98635864 339.29238892 C-101.59561157 339.95416138 -101.2048645 340.61593384 -100.80227661 341.29776001 C-93.73304823 353.10927559 -83.54381283 360.55805155 -70.36526489 364.46817017 C-69.05042114 364.79301392 -69.05042114 364.79301392 -67.70901489 365.12442017 C-66.61460083 365.41059204 -66.61460083 365.41059204 -65.49807739 365.70254517 C-50.66853825 367.94566873 -34.17675827 367.16825674 -21.70901489 358.12442017 C-12.34280656 349.83457046 -9.21645664 339.15728733 -7.70901489 327.12442017 C-7.44198448 322.5179818 -7.42747858 317.92518909 -7.43727112 313.31187439 C-7.43297419 311.95754257 -7.42780752 310.60321328 -7.42185646 309.24888772 C-7.40810889 305.56099713 -7.40649746 301.87318951 -7.40699971 298.1852771 C-7.40535238 294.19563833 -7.39220728 290.20603493 -7.38046265 286.21641541 C-7.36165636 279.31506295 -7.34990607 272.41372803 -7.34292412 265.5123539 C-7.33273083 255.53320411 -7.31065374 245.5541074 -7.2855382 235.57498529 C-7.24500777 219.38061862 -7.2125153 203.18624686 -7.18582153 186.99185181 C-7.18422423 186.02395972 -7.18262693 185.05606763 -7.18098123 184.05884548 C-7.17938233 183.08968896 -7.17778343 182.12053245 -7.17613608 181.12200755 C-7.15340778 167.35563629 -7.12877511 153.58927019 -7.10183716 139.82290649 C-7.09994101 138.85286402 -7.09804487 137.88282155 -7.09609126 136.88338385 C-7.06436107 120.73398407 -7.02862152 104.58459461 -6.99079567 88.43520802 C-6.96772295 78.47380248 -6.94878069 68.51240401 -6.93512893 58.55098101 C-6.92563079 51.7381168 -6.91280652 44.92526446 -6.89732008 38.11241124 C-6.88852143 34.1771093 -6.88143871 30.24182211 -6.87867928 26.30651093 C-6.8761426 22.71031406 -6.86911763 19.11415606 -6.85840703 15.51797452 C-6.85388862 13.58865187 -6.85435263 11.65931958 -6.85494512 9.72999173 C-6.85070408 8.59981411 -6.84646303 7.46963649 -6.84209347 6.30521107 C-6.84051957 5.32178504 -6.83894567 4.33835901 -6.83732408 3.32513219 C-6.57901258 -1.10533167 -3.7811583 0.00700685 0 0 Z " fill="#FEE84B" transform="translate(296.7090148925781,296.8755798339844)"/>
<path d="M0 0 C0.81926971 0.00359528 1.63853943 0.00719055 2.4826355 0.01089478 C3.34109573 0.01074875 4.19955597 0.01060272 5.08403015 0.01045227 C7.93559249 0.0111517 10.78709036 0.01894547 13.63864136 0.02676392 C15.61019353 0.02862799 17.58174615 0.03005194 19.55329895 0.03105164 C24.75324778 0.03487765 29.95316886 0.04470865 35.15310669 0.05575562 C40.45492172 0.06596794 45.75674121 0.07054887 51.05856323 0.07559204 C61.46938274 0.08633084 71.88018162 0.10340826 82.29098511 0.12442017 C83.62430606 2.79106207 82.96200544 4.2912232 82.29098511 7.12442017 C81.96098511 7.12442017 81.63098511 7.12442017 81.29098511 7.12442017 C81.29098511 5.47442017 81.29098511 3.82442017 81.29098511 2.12442017 C52.91098511 2.12442017 24.53098511 2.12442017 -4.70901489 2.12442017 C-4.69741333 12.19070923 -4.68581177 22.25699829 -4.67385864 32.62832642 C-4.66798613 39.3331607 -4.66234839 46.03799307 -4.65823364 52.74282837 C-4.65770241 53.60542349 -4.65717117 54.46801862 -4.65662384 55.35675299 C-4.65275527 61.80014183 -4.64949187 68.24353086 -4.64651489 74.68692017 C-4.64608059 75.59937484 -4.64564629 76.51182952 -4.64519882 77.45193434 C-4.61750826 137.2819811 -4.80188794 197.10825548 -5.20901489 256.93692017 C-5.21498861 257.81674262 -5.22096232 258.69656507 -5.22711706 259.6030488 C-5.37786293 281.77691381 -5.5377737 303.95070371 -5.70901489 326.12442017 C-6.03901489 326.12442017 -6.36901489 326.12442017 -6.70901489 326.12442017 C-6.73187956 284.73836411 -6.74951225 243.35230877 -6.76008022 201.96624765 C-6.761331 197.0856222 -6.76262532 192.20499677 -6.76394653 187.32437134 C-6.76434 185.8668401 -6.76434 185.8668401 -6.76474141 184.37986379 C-6.76909848 168.62484572 -6.77698622 152.86983128 -6.78616769 137.11481536 C-6.79550323 120.9612835 -6.80107029 104.80775354 -6.80310339 88.65421909 C-6.80447882 78.67824771 -6.80883052 68.70228658 -6.81693136 58.72631835 C-6.82219759 51.89512421 -6.82381947 45.06393542 -6.82251627 38.2327394 C-6.8218727 34.28536406 -6.82289257 30.33800671 -6.82822037 26.39063454 C-6.83305453 22.78286475 -6.83335343 19.1751252 -6.82991379 15.56735408 C-6.82928518 13.63148882 -6.83362676 11.69562397 -6.8380962 9.75976378 C-6.83610515 8.62566917 -6.8341141 7.49157456 -6.83206272 6.32311344 C-6.8326323 4.84277373 -6.8326323 4.84277373 -6.83321339 3.33252817 C-6.58355692 -1.10607985 -3.78750322 0.00701861 0 0 Z " fill="#FBEA60" transform="translate(296.7090148925781,296.8755798339844)"/>
<path d="M0 0 C0.33 0 0.66 0 1 0 C2.20466914 6.32556445 2.18606195 12.50674994 2.18530273 18.92822266 C2.18746467 20.96669188 2.20558457 23.00459675 2.22460938 25.04296875 C2.26119628 33.88815469 1.50193831 42.28620493 0 51 C-0.33 51 -0.66 51 -1 51 C-1.02886751 46.85418113 -1.04675327 42.70838784 -1.0625 38.5625 C-1.07087891 37.37849609 -1.07925781 36.19449219 -1.08789062 34.97460938 C-1.09111328 33.84990234 -1.09433594 32.72519531 -1.09765625 31.56640625 C-1.10289307 30.52427979 -1.10812988 29.48215332 -1.11352539 28.40844727 C-1 26 -1 26 0 25 C0.08737645 23.14630389 0.10698153 21.28932459 0.09765625 19.43359375 C0.09443359 18.30888672 0.09121094 17.18417969 0.08789062 16.02539062 C0.07951172 14.84138672 0.07113281 13.65738281 0.0625 12.4375 C0.05798828 11.24962891 0.05347656 10.06175781 0.04882812 8.83789062 C0.03699675 5.89187774 0.02051287 2.94596319 0 0 Z " fill="#FCE966" transform="translate(784,595)"/>
<path d="M0 0 C1.2375 -0.020625 2.475 -0.04125 3.75 -0.0625 C4.44609375 -0.07410156 5.1421875 -0.08570313 5.859375 -0.09765625 C8.05639204 0.00257263 9.88431375 0.41411765 12 1 C13.58226891 1.35889212 15.16562863 1.71300632 16.75 2.0625 C17.54921875 2.23910156 18.3484375 2.41570313 19.171875 2.59765625 C19.77515625 2.73042969 20.3784375 2.86320313 21 3 C21 3.66 21 4.32 21 5 C23.31 5.33 25.62 5.66 28 6 C28 6.33 28 6.66 28 7 C18.25782625 6.5286045 9.29939832 3.74524722 0 1 C0 0.67 0 0.34 0 0 Z " fill="#FCEA5C" transform="translate(548,735)"/>
<path d="M0 0 C0.33 0 0.66 0 1 0 C1.19148936 20.53191489 1.19148936 20.53191489 0 30 C-0.33 30 -0.66 30 -1 30 C-1.19594676 26.85463232 -1.3803401 23.70869386 -1.5625 20.5625 C-1.61857422 19.66466797 -1.67464844 18.76683594 -1.73242188 17.84179688 C-1.78076172 16.98779297 -1.82910156 16.13378906 -1.87890625 15.25390625 C-1.9260376 14.46314697 -1.97316895 13.6723877 -2.02172852 12.85766602 C-2 11 -2 11 -1 10 C-0.76712992 8.31816052 -0.58735834 6.6287584 -0.4375 4.9375 C-0.35371094 4.01839844 -0.26992188 3.09929688 -0.18359375 2.15234375 C-0.12300781 1.44207031 -0.06242187 0.73179687 0 0 Z " fill="#FEEB5D" transform="translate(378,614)"/>
<path d="M0 0 C0 0.66 0 1.32 0 2 C1.32 2.66 2.64 3.32 4 4 C-3.03787373 2.47512736 -10.0203196 0.77149249 -17 -1 C-17 -1.33 -17 -1.66 -17 -2 C-10.91891127 -3.80789124 -5.83137661 -1.83657235 0 0 Z " fill="#FEEA5B" transform="translate(653,374)"/>
<path d="M0 0 C0 0.66 0 1.32 0 2 C-6.28812795 2.99170242 -12.15772381 2.96350147 -18.5 2.5625 C-19.4178125 2.51029297 -20.335625 2.45808594 -21.28125 2.40429688 C-23.52129261 2.2759611 -25.76072975 2.14107403 -28 2 C-28 1.67 -28 1.34 -28 1 C-24.83350749 0.82991412 -21.6667838 0.66456601 -18.5 0.5 C-17.1696875 0.42845703 -17.1696875 0.42845703 -15.8125 0.35546875 C-10.53287287 0.08372324 -5.28655326 -0.04940704 0 0 Z " fill="#FEEE6A" transform="translate(644,663)"/>
<path d="M0 0 C0.99 0 1.98 0 3 0 C1.83805848 6.46712188 -0.1248748 12.09622349 -3 18 C-4.32435978 14.02692066 -3.18129186 11.19025432 -2.0625 7.3125 C-1.76956055 6.2596582 -1.76956055 6.2596582 -1.47070312 5.18554688 C-0.98800864 3.45491056 -0.49499154 1.72715934 0 0 Z " fill="#FCEA5B" transform="translate(778,655)"/>
<path d="M0 0 C4.18131733 0.52266467 7.37981371 2.09365297 11.0625 4.01171875 C13.32044251 5.16345152 15.62759824 6.11034934 18 7 C13.32959599 8.55680134 9.43716209 6.87236935 5 5 C2.94515983 3.46796209 1.62821501 2.00813185 0 0 Z " fill="#FEEC59" transform="translate(207,654)"/>
<path d="M0 0 C3.63559661 3.43361902 6.36113346 6.7973607 9 11 C8.67 11.66 8.34 12.32 8 13 C7.01 12.67 6.02 12.34 5 12 C3.8125 8.9375 3.8125 8.9375 3 6 C2.34 6 1.68 6 1 6 C0.67 4.02 0.34 2.04 0 0 Z " fill="#FBEA5B" transform="translate(753,348)"/>
<path d="M0 0 C3.11562563 0.24925005 4.42170994 0.85739603 7.125 2.25 C9.44995277 2.63749213 11.78351268 2.97982839 14.125 3.25 C14.125 3.58 14.125 3.91 14.125 4.25 C7.5544834 4.49794402 1.55528541 3.57388229 -4.875 2.25 C-2.875 0.25 -2.875 0.25 0 0 Z " fill="#FDEB60" transform="translate(580.875,740.75)"/>
<path d="M0 0 C-2.07914664 0.70005949 -4.16351586 1.38462244 -6.25 2.0625 C-7.41015625 2.44535156 -8.5703125 2.82820312 -9.765625 3.22265625 C-12.80077085 3.95211763 -14.15703213 4.11889082 -17 3 C-15.02 2.67 -13.04 2.34 -11 2 C-11 1.34 -11 0.68 -11 0 C-3.375 -1.125 -3.375 -1.125 0 0 Z " fill="#FCEB65" transform="translate(699,737)"/>
<path d="M0 0 C3 1 3 1 4.625 3.1875 C6.08385732 6.17152633 6.61808685 8.71554694 7 12 C3.71534104 9.20803989 1.98678042 5.76803183 0 2 C0 1.34 0 0.68 0 0 Z " fill="#FCEA5D" transform="translate(119,674)"/>
<path d="M0 0 C0.33 0 0.66 0 1 0 C1 6.27 1 12.54 1 19 C0.01 19 -0.98 19 -2 19 C-1.34 12.73 -0.68 6.46 0 0 Z " fill="#FEEC62" transform="translate(691,616)"/>
<path d="M0 0 C0.66 0.33 1.32 0.66 2 1 C-1.48720616 5.3590077 -4.72760915 5.94552183 -10 7 C-7.20283196 3.70921407 -3.80471422 1.93694542 0 0 Z " fill="#FCEC5F" transform="translate(184,623)"/>
<path d="M0 0 C1.65 0 3.3 0 5 0 C2.68118495 2.67901932 0.68185532 3.66204403 -2.6875 4.6875 C-3.89986328 5.06455078 -3.89986328 5.06455078 -5.13671875 5.44921875 C-6.05904297 5.72185547 -6.05904297 5.72185547 -7 6 C-6.67 5.01 -6.34 4.02 -6 3 C-4.35 3 -2.7 3 -1 3 C-0.67 2.01 -0.34 1.02 0 0 Z " fill="#FCEA58" transform="translate(319,729)"/>
<path d="M0 0 C0.66 0.33 1.32 0.66 2 1 C0.4375 3 0.4375 3 -2 5 C-5.75 5.25 -5.75 5.25 -9 5 C-6.06626269 3.04417512 -3.21783702 1.43775696 0 0 Z " fill="#FEEC5B" transform="translate(670,654)"/>
<path d="M0 0 C0.66 0.99 1.32 1.98 2 3 C0.12050295 6.57104439 -1.17053157 8.54744301 -5 10 C-3.66511872 6.40608886 -2.03977277 3.24509304 0 0 Z " fill="#FEEC5B" transform="translate(688,635)"/>
<path d="M0 0 C3.91211733 1.15585285 6.8745041 2.35534962 10 5 C6.63295715 5.2295711 4.58629732 5.33943529 1.625 3.625 C1.08875 3.08875 0.5525 2.5525 0 2 C0 1.34 0 0.68 0 0 Z " fill="#FEEB59" transform="translate(691,489)"/>
<path d="M0 0 C2.4375 0.8125 2.4375 0.8125 5 2 C5.33 2.99 5.66 3.98 6 5 C6.99 5.33 7.98 5.66 9 6 C8.01 6.495 8.01 6.495 7 7 C5.0546875 6.00390625 5.0546875 6.00390625 2.875 4.5625 C2.15054688 4.08941406 1.42609375 3.61632812 0.6796875 3.12890625 C0.12539062 2.75636719 -0.42890625 2.38382813 -1 2 C-0.67 1.34 -0.34 0.68 0 0 Z " fill="#FCE85A" transform="translate(164,723)"/>
<path d="M0 0 C0.66 0.33 1.32 0.66 2 1 C-2.30769231 5.92307692 -2.30769231 5.92307692 -5.8125 6.3125 C-6.8953125 6.1578125 -6.8953125 6.1578125 -8 6 C-5.63404067 3.38499232 -3.13950774 1.61000397 0 0 Z " fill="#FDEC5B" transform="translate(465,645)"/>
<path d="M0 0 C3 1 3 1 4.1875 3.25 C4.99938294 5.99791147 5.16260121 8.15447889 5 11 C0 4.63636364 0 4.63636364 0 0 Z " fill="#FEEB5B" transform="translate(492,467)"/>
<path d="M0 0 C2.97 0.99 5.94 1.98 9 3 C5 5 5 5 2.8125 4.3125 C1 3 1 3 0 0 Z " fill="#FDEC58" transform="translate(629,463)"/>
<path d="M0 0 C3.37503669 1.1858237 5.64722731 2.27573689 8 5 C2.25 4.125 2.25 4.125 0 3 C0 2.01 0 1.02 0 0 Z " fill="#FCEC58" transform="translate(712,312)"/>
<path d="M0 0 C0.66 0.33 1.32 0.66 2 1 C2 1.66 2 2.32 2 3 C0.02253397 3.73080266 -1.98072489 4.39421747 -4 5 C-4.66 4.67 -5.32 4.34 -6 4 C-4.02 2.68 -2.04 1.36 0 0 Z " fill="#FDEB5F" transform="translate(172,630)"/>
<path d="M0 0 C2.25 -0.25 2.25 -0.25 5 0 C7.3125 2 7.3125 2 9 4 C8.01 4.495 8.01 4.495 7 5 C4.5249829 3.88568235 2.32116581 2.41849022 0 1 C0 0.67 0 0.34 0 0 Z " fill="#FEEA5C" transform="translate(548,528)"/>
<path d="M0 0 C8.57142857 0.71428571 8.57142857 0.71428571 12 4 C10.56138706 3.91253716 9.12402492 3.80434652 7.6875 3.6875 C6.88699219 3.62949219 6.08648438 3.57148438 5.26171875 3.51171875 C2.63727666 2.91793306 1.69179328 2.04219706 0 0 Z " fill="#FDEB5C" transform="translate(674,483)"/>
<path d="M0 0 C0.33 0 0.66 0 1 0 C1 2.31 1 4.62 1 7 C0.67 7 0.34 7 0 7 C0 4.69 0 2.38 0 0 Z " fill="#FCE34F" transform="translate(288,601)"/>
<path d="M0 0 C0.33 0 0.66 0 1 0 C1 1.98 1 3.96 1 6 C0.67 6 0.34 6 0 6 C0 4.02 0 2.04 0 0 Z " fill="#F3DC4C" transform="translate(288,471)"/>
<path d="" fill="#FBE34F" transform="translate(0,0)"/>
<path d="" fill="#F1DC4E" transform="translate(0,0)"/>
<path d="" fill="#F3DB4D" transform="translate(0,0)"/>
<path d="" fill="#FBE64C" transform="translate(0,0)"/>
<path d="" fill="#FBE34E" transform="translate(0,0)"/>
<path d="" fill="#F9E34E" transform="translate(0,0)"/>
<path d="" fill="#F8E250" transform="translate(0,0)"/>
<path d="" fill="#F5DE4E" transform="translate(0,0)"/>
<path d="" fill="#F4DC4C" transform="translate(0,0)"/>
<path d="" fill="#FEE650" transform="translate(0,0)"/>
<path d="" fill="#4B4944" transform="translate(0,0)"/>
<path d="" fill="#F4DF4B" transform="translate(0,0)"/>
<path d="" fill="#F5DF4D" transform="translate(0,0)"/>
<path d="" fill="#F4E14A" transform="translate(0,0)"/>
<path d="" fill="#F4DB4E" transform="translate(0,0)"/>
<path d="" fill="#F7DC4B" transform="translate(0,0)"/>
<path d="" fill="#F2DB4A" transform="translate(0,0)"/>
<path d="" fill="#F5E14B" transform="translate(0,0)"/>
<path d="" fill="#F1D54E" transform="translate(0,0)"/>
<path d="" fill="#EDD84B" transform="translate(0,0)"/>
<path d="" fill="#FDE54B" transform="translate(0,0)"/>
<path d="" fill="#FCE653" transform="translate(0,0)"/>
<path d="" fill="#FCE651" transform="translate(0,0)"/>
<path d="" fill="#FDE450" transform="translate(0,0)"/>
<path d="" fill="#FCE553" transform="translate(0,0)"/>
<path d="" fill="#FBE351" transform="translate(0,0)"/>
<path d="" fill="#FAE150" transform="translate(0,0)"/>
<path d="" fill="#F8E04E" transform="translate(0,0)"/>
<path d="" fill="#FAE04F" transform="translate(0,0)"/>
<path d="" fill="#F8DF51" transform="translate(0,0)"/>
<path d="" fill="#FBE750" transform="translate(0,0)"/>
<path d="" fill="#F7DF50" transform="translate(0,0)"/>
<path d="" fill="#FDE94E" transform="translate(0,0)"/>
<path d="" fill="#F8E051" transform="translate(0,0)"/>
<path d="" fill="#F4DE4C" transform="translate(0,0)"/>
<path d="" fill="#F6E04C" transform="translate(0,0)"/>
<path d="" fill="#F5DD4B" transform="translate(0,0)"/>
<path d="" fill="#F6DE4D" transform="translate(0,0)"/>
<path d="" fill="#F4DE4D" transform="translate(0,0)"/>
<path d="" fill="#F3DB4A" transform="translate(0,0)"/>
<path d="" fill="#F3DE4C" transform="translate(0,0)"/>
<path d="" fill="#F4DB4B" transform="translate(0,0)"/>
<path d="" fill="#FBE64B" transform="translate(0,0)"/>
<path d="" fill="#F2DB4D" transform="translate(0,0)"/>
<path d="" fill="#FBE15A" transform="translate(0,0)"/>
<path d="" fill="#F3DA4E" transform="translate(0,0)"/>
<path d="" fill="#F4DC4C" transform="translate(0,0)"/>
<path d="" fill="#F5DD4D" transform="translate(0,0)"/>
<path d="" fill="#F4DD4E" transform="translate(0,0)"/>
<path d="" fill="#F4DC50" transform="translate(0,0)"/>
<path d="" fill="#FDE64E" transform="translate(0,0)"/>
<path d="" fill="#F7E352" transform="translate(0,0)"/>
<path d="" fill="#F4DD4F" transform="translate(0,0)"/>
<path d="" fill="#F2DD4E" transform="translate(0,0)"/>
<path d="" fill="#FFEA4D" transform="translate(0,0)"/>
<path d="" fill="#FFE84E" transform="translate(0,0)"/>
<path d="" fill="#EFDC51" transform="translate(0,0)"/>
<path d="" fill="#F5E04A" transform="translate(0,0)"/>
<path d="" fill="#F2DE49" transform="translate(0,0)"/>
<path d="" fill="#E1D04E" transform="translate(0,0)"/>
<path d="" fill="#F5E149" transform="translate(0,0)"/>
<path d="" fill="#F9E14E" transform="translate(0,0)"/>
</svg>
