<?xml version="1.0" encoding="UTF-8"?>
<svg version="1.1" xmlns="http://www.w3.org/2000/svg" width="1024" height="1024">
<path d="M0 0 C1.69392258 1.63895754 3.36350435 3.30369886 5 5 C5.66 5.61359375 6.32 6.2271875 7 6.859375 C17.32360877 16.61841142 25.52464681 28.49361915 33.3125 40.3125 C33.78671387 41.02341797 34.26092773 41.73433594 34.74951172 42.46679688 C35.17893066 43.13388672 35.60834961 43.80097656 36.05078125 44.48828125 C36.42887939 45.07134033 36.80697754 45.65439941 37.1965332 46.25512695 C38 48 38 48 38 52 C36.15625 53.75390625 36.15625 53.75390625 33.5 55.5625 C32.50097656 56.2534375 31.50195312 56.944375 30.47265625 57.65625 C29.91852051 58.03007812 29.36438477 58.40390625 28.79345703 58.7890625 C26.87265812 60.08598091 24.9649202 61.40065878 23.05859375 62.71875 C20.30104589 64.62334288 17.53933869 66.52162104 14.7734375 68.4140625 C8.95168754 72.3994793 3.18104416 76.45608348 -2.578125 80.53125 C-11.13875493 86.58747359 -19.71649886 92.61907508 -28.3125 98.625 C-29.80753052 99.67385376 -29.80753052 99.67385376 -31.33276367 100.74389648 C-32.27095947 101.39817627 -33.20915527 102.05245605 -34.17578125 102.7265625 C-35.42742065 103.60175537 -35.42742065 103.60175537 -36.7043457 104.49462891 C-38.75398712 105.83867751 -40.78309756 106.96181283 -43 108 C-43.98226562 106.69289063 -43.98226562 106.69289063 -44.984375 105.359375 C-61.78587104 83.2992289 -81.70460644 66.74313868 -110.06152344 62.70654297 C-126.93935074 60.72209534 -144.22943648 63.30677444 -158 73.8125 C-166.81544353 80.87295077 -173.25473663 89.62285858 -175 101 C-175.99815934 115.79239421 -173.97649454 128.42726633 -164 140 C-145.37540942 160.47165742 -111.19250858 169.5224776 -86.27502441 180.16372681 C-40.8803481 199.55161042 -40.8803481 199.55161042 -23 209 C-22.23461914 209.39864258 -21.46923828 209.79728516 -20.68066406 210.20800781 C-4.1492422 218.8537141 10.76939354 228.94525077 25 241 C25.57878906 241.45632813 26.15757812 241.91265625 26.75390625 242.3828125 C31.07607921 245.79089666 34.46704218 249.81512734 38 254 C38.7528125 254.84175781 39.505625 255.68351562 40.28125 256.55078125 C68.9270334 289.32119486 76.95460734 330.59781873 75 373 C72.72948424 405.29703557 59.74908061 435.42189239 39 460 C38.20722656 460.94617188 37.41445313 461.89234375 36.59765625 462.8671875 C32.71245544 467.3776738 32.71245544 467.3776738 31 469 C30.34 469 29.68 469 29 469 C28.65775391 469.85851562 28.65775391 469.85851562 28.30859375 470.734375 C25.52820586 475.5481809 20.336926 478.64596248 16 482 C15.12730469 482.67546875 14.25460937 483.3509375 13.35546875 484.046875 C-24.76945708 512.62627967 -73.84662122 524.38009889 -121 523 C-121.33 523.66 -121.66 524.32 -122 525 C-122 524.34 -122 523.68 -122 523 C-123.58748047 522.96132812 -123.58748047 522.96132812 -125.20703125 522.921875 C-147.92702612 522.15918515 -170.16531518 518.23739207 -192 512 C-192.87253418 511.75443359 -193.74506836 511.50886719 -194.64404297 511.25585938 C-217.46463032 504.68491723 -239.20969908 493.90206763 -258.3125 479.8125 C-258.93713135 479.35254639 -259.5617627 478.89259277 -260.20532227 478.41870117 C-274.08810817 468.05937644 -286.2444468 456.59257725 -297 443 C-297.78246094 442.03449219 -298.56492187 441.06898438 -299.37109375 440.07421875 C-304.53846358 433.56746666 -309.17228031 426.82930616 -313.625 419.8125 C-314.15843018 418.97396484 -314.69186035 418.13542969 -315.24145508 417.27148438 C-319 411.25583529 -319 411.25583529 -319 409 C-319.99 409.33 -320.98 409.66 -322 410 C-322 408.35 -322 406.7 -322 405 C-321.18660156 404.61070312 -320.37320313 404.22140625 -319.53515625 403.8203125 C-312.27090499 400.27398511 -305.25201081 396.47301142 -298.31152344 392.33105469 C-291.1955472 388.09034719 -284.00856236 383.97761048 -276.8125 379.875 C-276.23143494 379.54355988 -275.65036987 379.21211975 -275.05169678 378.87063599 C-270.42828407 376.23345679 -265.80449437 373.59693454 -261.17913818 370.96316528 C-253.37440982 366.51841451 -245.60177916 362.02682307 -237.88671875 357.42773438 C-233.99311075 355.12163322 -230.07918192 352.96948002 -226 351 C-221.88595442 356.04408248 -217.8800891 361.11906768 -214.125 366.4375 C-195.81150213 391.90301479 -170.22181313 409.58638083 -139.18188477 415.10668945 C-123.64505135 417.60444668 -103.68514994 419.55021077 -89 413 C-87.52612197 412.7389733 -86.04616108 412.5104929 -84.5625 412.3125 C-72.80633354 410.03485225 -63.20271332 403.47563169 -55 395 C-54.41605469 394.41347656 -53.83210938 393.82695313 -53.23046875 393.22265625 C-43.53195268 382.78754403 -41.38146851 370.19091152 -41.6875 356.48828125 C-42.18418928 346.64762493 -46.07708357 338.71459865 -52 331 C-52.59425781 330.19433594 -53.18851563 329.38867188 -53.80078125 328.55859375 C-69.82705011 309.91346746 -98.34539974 300.71550721 -120.30859375 291.55322266 C-126.14564019 289.10753607 -131.94097763 286.5649151 -137.74206543 284.03546143 C-146.2739635 280.3166417 -154.81171145 276.62205114 -163.4375 273.125 C-170.3148547 270.32485047 -177.07431456 267.31628684 -183.75732422 264.08105469 C-185.38580659 263.29606449 -187.01817384 262.5191176 -188.65283203 261.74707031 C-228.15762703 243.04871402 -263.97267156 215.43477489 -280.7265625 173.6953125 C-294.39188439 134.04072813 -293.44948142 88.78926376 -275.5234375 50.578125 C-262.45609477 24.01457001 -243.3732814 4.40272599 -219 -12 C-217.65421875 -12.92232422 -217.65421875 -12.92232422 -216.28125 -13.86328125 C-210.39138066 -17.86953978 -210.39138066 -17.86953978 -207 -19 C-205.08249355 -19.87235093 -203.16551826 -20.74590697 -201.25244141 -21.62792969 C-136.65646107 -51.19411347 -56.35864151 -43.98012852 0 0 Z " fill="#0084DD" transform="translate(883,267)"/>
<path d="M0 0 C135.96 0 271.92 0 412 0 C412 33.66 412 67.32 412 102 C401.98914063 102.06058594 391.97828125 102.12117188 381.6640625 102.18359375 C375.33853752 102.22406772 369.01301577 102.26478987 362.6875 102.30664062 C352.63771106 102.37308532 342.58792275 102.43848928 332.53808594 102.49731445 C325.21995 102.54015469 317.90184536 102.58643227 310.58375776 102.63687855 C306.70707962 102.66348079 302.83040769 102.68833389 298.95369339 102.70907402 C295.30776335 102.7286337 291.66189289 102.75277544 288.01601601 102.78049088 C286.03401825 102.79434773 284.05198809 102.80329305 282.06996155 102.81211853 C280.31148643 102.82680176 280.31148643 102.82680176 278.51748657 102.84178162 C277.49429636 102.84823417 276.47110615 102.85468672 275.41691017 102.8613348 C272.98881804 102.84090443 272.98881804 102.84090443 271 104 C271.01238929 105.27307447 271.02477858 106.54614895 271.0375433 107.85780144 C271.69848047 176.30381613 272.10084324 244.74599748 272.09765625 313.1953125 C272.09762838 314.02361033 272.09760051 314.85190817 272.09757179 315.70530593 C272.09664607 336.72341638 272.08617709 357.74151807 272.07202661 378.75962329 C272.06393009 390.92584868 272.05857868 403.09207327 272.05493164 415.25830078 C272.05453756 416.56913968 272.05453756 416.56913968 272.05413551 417.90646018 C272.05282919 422.29643536 272.05156579 426.68641054 272.05032361 431.07638574 C272.04018442 466.71759482 272.02278817 502.35879682 272 538 C261.49775414 539.12587559 261.49775414 539.12587559 256.69735718 539.12025452 C255.7748819 539.12162918 254.85240662 539.12300385 253.90197754 539.12442017 C252.92805054 539.12082489 251.95412354 539.11722961 250.95068359 539.11352539 C249.89583771 539.11367142 248.84099182 539.11381744 247.75418091 539.1139679 C244.30224478 539.11327679 240.85036408 539.10552229 237.3984375 539.09765625 C234.99134348 539.09578922 232.58424908 539.09436666 230.17715454 539.09336853 C223.86764461 539.08956583 217.558158 539.07975488 211.24865723 539.06866455 C204.79988928 539.05840196 198.35111753 539.05386055 191.90234375 539.04882812 C179.26821926 539.03813046 166.63411088 539.02127576 154 539 C152.50631089 536.01262177 152.87599137 533.30994743 152.87695217 529.9759655 C152.87579833 529.24090363 152.87464448 528.50584176 152.87345567 527.74850529 C152.87078715 525.26003887 152.87531311 522.77163581 152.87974548 520.28317261 C152.87930983 518.49128298 152.87843503 516.69939342 152.87715632 514.9075042 C152.87491021 509.9637318 152.87893423 505.01998088 152.88393438 500.07621121 C152.88823703 494.75240658 152.88679259 489.42860324 152.8860321 484.10479736 C152.88550675 474.87436509 152.88865473 465.64393987 152.89426994 456.41350937 C152.90238341 443.06771596 152.90500001 429.72192597 152.90625793 416.37613036 C152.9084487 394.72552377 152.91510943 373.07492095 152.92456055 351.42431641 C152.93373404 330.38785826 152.94081518 309.35140114 152.94506836 288.31494141 C152.94533108 287.01911077 152.94559381 285.72328014 152.94586449 284.38818191 C152.94716949 277.88763626 152.94843321 271.3870906 152.94967639 264.88654494 C152.96004976 210.92435996 152.97848847 156.96218192 153 103 C102.18 102.67 51.36 102.34 -1 102 C-0.67 68.34 -0.34 34.68 0 0 Z " fill="#0083DE" transform="translate(100,240)"/>
<path d="M0 0 C135.63 0 271.26 0 411 0 C411 31.35 411 62.7 411 95 C410.67 95 410.34 95 410 95 C409.505 48.965 409.505 48.965 409 2 C274.69 1.67 140.38 1.34 2 1 C2 33.01 2 65.02 2 98 C52.49 98.33 102.98 98.66 155 99 C156.45947679 101.91895357 156.13518018 104.84084662 156.12304783 108.03965187 C156.12420167 108.77640211 156.12535552 109.51315235 156.12654433 110.27222836 C156.12921287 112.76643814 156.12468687 115.26058469 156.12025452 117.75479126 C156.12069017 119.55080568 156.12156497 121.34682005 156.12284368 123.14283407 C156.1250898 128.09800803 156.12106576 133.05316055 156.11606562 138.00833178 C156.11176298 143.34440646 156.11320741 148.68047985 156.1139679 154.01655579 C156.11449325 163.26826898 156.11134526 172.51997513 156.10573006 181.77168655 C156.0976166 195.14824905 156.095 208.52480814 156.09374207 221.90137284 C156.0915513 243.60189372 156.08489056 265.30241084 156.07543945 287.00292969 C156.06626596 308.08789043 156.05918482 329.17285016 156.05493164 350.2578125 C156.05466892 351.55663013 156.05440619 352.85544776 156.05413551 354.1936235 C156.05283051 360.70915322 156.05156679 367.22468295 156.05032361 373.74021268 C156.03995024 427.82681178 156.02151153 481.91340395 156 536 C193.29 536 230.58 536 269 536 C269 391.79 269 247.58 269 99 C315.86 99 362.72 99 411 99 C411 99.33 411 99.66 411 100 C364.8 100 318.6 100 271 100 C271 100.66 271 101.32 271 102 C271.66 102.33 272.32 102.66 273 103 C272.34 103 271.68 103 271 103 C271.01238929 104.27307447 271.02477858 105.54614895 271.0375433 106.85780144 C271.69848047 175.30381613 272.10084324 243.74599748 272.09765625 312.1953125 C272.09762838 313.02361033 272.09760051 313.85190817 272.09757179 314.70530593 C272.09664607 335.72341638 272.08617709 356.74151807 272.07202661 377.75962329 C272.06393009 389.92584868 272.05857868 402.09207327 272.05493164 414.25830078 C272.05453756 415.56913968 272.05453756 415.56913968 272.05413551 416.90646018 C272.05282919 421.29643536 272.05156579 425.68641054 272.05032361 430.07638574 C272.04018442 465.71759482 272.02278817 501.35879682 272 537 C261.49775414 538.12587559 261.49775414 538.12587559 256.69735718 538.12025452 C255.7748819 538.12162918 254.85240662 538.12300385 253.90197754 538.12442017 C252.92805054 538.12082489 251.95412354 538.11722961 250.95068359 538.11352539 C249.89583771 538.11367142 248.84099182 538.11381744 247.75418091 538.1139679 C244.30224478 538.11327679 240.85036408 538.10552229 237.3984375 538.09765625 C234.99134348 538.09578922 232.58424908 538.09436666 230.17715454 538.09336853 C223.86764461 538.08956583 217.558158 538.07975488 211.24865723 538.06866455 C204.79988928 538.05840196 198.35111753 538.05386055 191.90234375 538.04882812 C179.26821926 538.03813046 166.63411088 538.02127576 154 538 C152.50631089 535.01262177 152.87599137 532.30994743 152.87695217 528.9759655 C152.87579833 528.24090363 152.87464448 527.50584176 152.87345567 526.74850529 C152.87078715 524.26003887 152.87531311 521.77163581 152.87974548 519.28317261 C152.87930983 517.49128298 152.87843503 515.69939342 152.87715632 513.9075042 C152.87491021 508.9637318 152.87893423 504.01998088 152.88393438 499.07621121 C152.88823703 493.75240658 152.88679259 488.42860324 152.8860321 483.10479736 C152.88550675 473.87436509 152.88865473 464.64393987 152.89426994 455.41350937 C152.90238341 442.06771596 152.90500001 428.72192597 152.90625793 415.37613036 C152.9084487 393.72552377 152.91510943 372.07492095 152.92456055 350.42431641 C152.93373404 329.38785826 152.94081518 308.35140114 152.94506836 287.31494141 C152.94533108 286.01911077 152.94559381 284.72328014 152.94586449 283.38818191 C152.94716949 276.88763626 152.94843321 270.3870906 152.94967639 263.88654494 C152.96004976 209.92435996 152.97848847 155.96218192 153 102 C102.18 101.67 51.36 101.34 -1 101 C-0.67 67.67 -0.34 34.34 0 0 Z " fill="#0578CB" transform="translate(100,241)"/>
<path d="M0 0 C-0.83660156 0.47308594 -1.67320312 0.94617188 -2.53515625 1.43359375 C-8.63767641 4.89675394 -14.69714424 8.4071321 -20.6875 12.0625 C-29.03845331 17.14314991 -37.61901229 21.81963329 -46.1940918 26.50805664 C-52.58554279 30.02235406 -58.78669707 33.69230398 -64.86425781 37.72802734 C-67 39 -67 39 -69 39 C-63.1782483 50.92491737 -55.9851321 61.42364837 -48 72 C-47.26910156 72.97839844 -46.53820312 73.95679688 -45.78515625 74.96484375 C-42.75225408 78.95340875 -39.56677605 82.47015802 -36 86 C-35.16984375 86.8765625 -34.3396875 87.753125 -33.484375 88.65625 C-25.362656 97.10283776 -16.50299362 104.16358392 -7 111 C-6.36690918 111.45648926 -5.73381836 111.91297852 -5.08154297 112.38330078 C11.96261988 124.53049745 30.42388836 132.78010398 50 140 C50 140.33 50 140.66 50 141 C44.35063517 140.48585137 39.54718598 139.36370961 34.3125 137.125 C33.59046387 136.81965332 32.86842773 136.51430664 32.12451172 136.19970703 C10.73536811 126.93304558 -9.16745784 115.22308805 -26 99 C-27.30636274 97.88857899 -28.61854523 96.78394817 -29.9375 95.6875 C-43.92819173 83.43495938 -54.82919262 68.22960327 -64.75 52.625 C-65.2759375 51.79790527 -65.801875 50.97081055 -66.34375 50.11865234 C-70 44.2571037 -70 44.2571037 -70 42 C-71.485 42.495 -71.485 42.495 -73 43 C-73 41.35 -73 39.7 -73 38 C-71.77990234 37.41605469 -71.77990234 37.41605469 -70.53515625 36.8203125 C-63.27325837 33.27513401 -56.2570016 29.47489644 -49.31811523 25.33544922 C-42.7475146 21.4208325 -36.12257913 17.60451668 -29.48175049 13.8107605 C-28.26265529 13.1142921 -27.04385485 12.41730746 -25.82537842 11.71975708 C-22.96997081 10.08522553 -20.11118104 8.45713459 -17.24707031 6.83789062 C-15.09389804 5.61916274 -12.94727673 4.38878288 -10.80761719 3.14648438 C-9.33663574 2.30827148 -9.33663574 2.30827148 -7.8359375 1.453125 C-6.97274902 0.95458008 -6.10956055 0.45603516 -5.22021484 -0.05761719 C-3 -1 -3 -1 0 0 Z " fill="#077ACB" transform="translate(634,634)"/>
<path d="M0 0 C6.16070273 1.95786203 12.12188273 4.20508811 18.0625 6.75 C18.88758057 7.10070557 19.71266113 7.45141113 20.56274414 7.81274414 C23.04406663 8.87003234 25.52265252 9.93343459 28 11 C29.04365723 11.44931885 29.04365723 11.44931885 30.10839844 11.90771484 C36.35372753 14.60477178 42.57587869 17.35111742 48.7734375 20.15625 C49.59787354 20.52935303 50.42230957 20.90245605 51.27172852 21.28686523 C52.97058146 22.05622181 54.66898434 22.82657293 56.36694336 23.59790039 C61.25855165 25.80778163 66.1787496 27.90644996 71.15380859 29.9206543 C78.9102123 33.07567845 86.33959216 36.60354673 93.6875 40.625 C94.90759766 41.28991455 94.90759766 41.28991455 96.15234375 41.96826172 C101.34104073 44.87294411 106.61964492 47.93913195 111 52 C111 52.66 111 53.32 111 54 C111.59039063 54.27070312 112.18078125 54.54140625 112.7890625 54.8203125 C122.67363016 60.09441044 127.11808751 71.44451056 130.40234375 81.59082031 C131.42246038 85.70295713 131.44468086 89.72018719 131.375 93.9375 C131.36194824 95.25355225 131.36194824 95.25355225 131.34863281 96.59619141 C131.1436893 105.63218465 129.5340047 112.74854557 124 120 C122.67353357 116.3732057 123.34017682 114.47187589 124.875 111 C129.77110689 99.76976881 129.73211678 86.03267134 125.2734375 74.6171875 C123.24055861 70.43918488 120.82623038 66.68116507 118 63 C117.40574219 62.19433594 116.81148437 61.38867188 116.19921875 60.55859375 C100.17591697 41.91691938 71.66377817 32.71898219 49.70458984 23.55761719 C43.15001682 20.81235842 36.64114494 17.9599028 30.125 15.125 C27.73194763 14.08553038 25.33872456 13.04645364 22.9453125 12.0078125 C21.81125977 11.51313477 20.67720703 11.01845703 19.50878906 10.50878906 C17.03836884 9.44650149 14.56587374 8.40675299 12.07714844 7.38964844 C11.43526581 7.12409149 10.79338318 6.85853455 10.13204956 6.58493042 C8.34442068 5.84689519 6.55293258 5.11822776 4.76123047 4.39013672 C2 3 2 3 0 0 Z " fill="#057BCF" transform="translate(713,535)"/>
<path d="M0 0 C0.66 0.33 1.32 0.66 2 1 C1.48050781 1.52207031 0.96101562 2.04414063 0.42578125 2.58203125 C-9.53274661 13.09278801 -12.54589303 23.5278695 -12.2734375 37.7890625 C-11.6959403 50.37392732 -5.96095507 60.43575348 2.9375 69.0625 C27.50802876 89.51756706 63.81773536 99.6948672 93 112 C93 112.66 93 113.32 93 114 C88.3512448 113.3008708 84.30214935 111.62225669 80 109.8125 C79.24235352 109.49716309 78.48470703 109.18182617 77.70410156 108.85693359 C72.28698363 106.58512833 66.95452786 104.15949613 61.63671875 101.6640625 C56.97755477 99.53215718 52.27381404 97.51347825 47.5625 95.5 C46.65048828 95.1088501 45.73847656 94.7177002 44.79882812 94.31469727 C40.92424128 92.65699525 37.04919712 91.00786256 33.13671875 89.44140625 C13.30225172 81.36578127 -4.41962898 70.73857866 -13.16015625 50.28515625 C-16.28006991 40.63519074 -16.94526476 26.53438983 -13 17 C-9.74950856 10.97653776 -6.14496879 5.53967835 -1 1 C-0.67 0.67 -0.34 0.34 0 0 Z " fill="#047BCF" transform="translate(720,342)"/>
<path d="M0 0 C0.99 0.33 1.98 0.66 3 1 C-10.55643672 11.01186381 -24.43756077 20.57791262 -38.3425293 30.09692383 C-43.16673169 33.40719648 -47.93197601 36.79341015 -52.68164062 40.20947266 C-59.71042238 45.25107013 -66.85783014 50.12106318 -74 55 C-77.14287566 51.94352642 -79.97561906 48.86471322 -82.625 45.375 C-94.07281128 30.97429534 -107.02465947 21.08463475 -124 14 C-124 13.34 -124 12.68 -124 12 C-107.07325522 14.31696887 -90.55442742 30.32050601 -80.59765625 43.078125 C-78.69015403 45.69297865 -76.82103256 48.32440467 -75 51 C-70.15873735 49.40182256 -66.45303165 46.65072165 -62.375 43.6875 C-60.8512 42.59504241 -59.32642444 41.50394455 -57.80078125 40.4140625 C-57.0113916 39.84977539 -56.22200195 39.28548828 -55.40869141 38.70410156 C-51.49658506 35.93636365 -47.52826843 33.25249245 -43.5625 30.5625 C-37.24003416 26.2627079 -30.99691255 21.87099309 -24.8125 17.375 C-21.87697394 15.24725997 -18.93963625 13.12205806 -16 11 C-15.24396484 10.45408203 -14.48792969 9.90816406 -13.70898438 9.34570312 C-11.50157706 7.76036619 -9.28396531 6.19055579 -7.0625 4.625 C-6.39387939 4.14208496 -5.72525879 3.65916992 -5.03637695 3.16162109 C-3.41118083 2.02683874 -1.71023564 1.00204165 0 0 Z " fill="#057BCE" transform="translate(915,320)"/>
<path d="M0 0 C0.99 0.495 0.99 0.495 2 1 C-3.40733206 4.65017866 -8.73154591 7.32593487 -14.875 9.5 C-15.70016113 9.79624268 -16.52532227 10.09248535 -17.37548828 10.39770508 C-45.27768233 20.23286953 -74.39791926 24.86640236 -104 24 C-104.33 24.66 -104.66 25.32 -105 26 C-105 25.34 -105 24.68 -105 24 C-106.79630859 23.92652344 -106.79630859 23.92652344 -108.62890625 23.8515625 C-134.80058539 22.68783675 -134.80058539 22.68783675 -145 19 C-145 18.67 -145 18.34 -145 18 C-137.68943994 18.4402556 -130.50333593 19.05090716 -123.25 20.0625 C-104.65317717 22.44265054 -85.53974783 21.43317661 -67 19 C-66.00613281 18.87109375 -65.01226563 18.7421875 -63.98828125 18.609375 C-42.78681848 15.76495515 -20.68976629 10.89388861 -1.625 0.734375 C-1.08875 0.49203125 -0.5525 0.2496875 0 0 Z " fill="#067BCC" transform="translate(866,766)"/>
<path d="M0 0 C2.59107717 3.10188952 3.83025742 6.00020241 5.125 9.8125 C11.40922591 26.59552248 22.79335566 41.08912617 35 54 C35.69609375 54.74894531 36.3921875 55.49789062 37.109375 56.26953125 C52.48941239 72.29508115 72.40177369 83.88447883 92.51171875 92.9296875 C93.34832031 93.30738281 94.18492187 93.68507813 95.046875 94.07421875 C96.15820801 94.56281372 96.15820801 94.56281372 97.29199219 95.0612793 C99 96 99 96 100 98 C94.01036845 97.47701734 89.22481166 94.97682572 83.9375 92.3125 C82.49515991 91.58643555 82.49515991 91.58643555 81.02368164 90.84570312 C45.66173144 72.5891623 16.59562996 44.86349937 0.92578125 7.91796875 C0.02521656 5.07948005 -0.20191652 2.95234693 0 0 Z " fill="#067ACC" transform="translate(601,432)"/>
<path d="M0 0 C4.19776121 1.41949611 7.06221948 3.463859 10.4375 6.3125 C11.40042969 7.12203125 12.36335937 7.9315625 13.35546875 8.765625 C14.22816406 9.50296875 15.10085938 10.2403125 16 11 C17.08274015 11.85491847 18.1659294 12.70926923 19.25 13.5625 C22.86642368 16.76796644 25.88709901 20.31269466 29 24 C29.7528125 24.84175781 30.505625 25.68351563 31.28125 26.55078125 C47.23208667 44.79833649 63.20707268 72.13872447 63.3125 97.125 C63.209375 98.40375 63.10625 99.6825 63 101 C62.67 101 62.34 101 62 101 C61.87995605 100.41734375 61.75991211 99.8346875 61.63623047 99.234375 C59.02536223 86.73757574 56.14577228 74.7097182 51 63 C50.57726807 62.03102783 50.57726807 62.03102783 50.14599609 61.04248047 C39.89676747 38.04821438 23.47762982 18.39142769 2.8125 4.0625 C1.884375 3.381875 0.95625 2.70125 0 2 C0 1.34 0 0.68 0 0 Z " fill="#067ACB" transform="translate(892,497)"/>
<path d="M0 0 C5.39506682 0.50687243 9.61755748 1.92711327 14.4375 4.4375 C15.12199219 4.78731934 15.80648437 5.13713867 16.51171875 5.49755859 C29.15745038 12.08868469 42.10397296 19.62123993 52 30 C52.60972656 30.56589844 53.21945312 31.13179688 53.84765625 31.71484375 C62.33856952 39.74345684 69.52441848 49.28662772 76 59 C75.67 59.99 75.34 60.98 75 62 C74.27296875 60.99582031 73.5459375 59.99164063 72.796875 58.95703125 C60.54214077 42.2125313 47.125639 26.57127814 29 16 C27.91847656 15.35289062 26.83695313 14.70578125 25.72265625 14.0390625 C17.40032531 9.12051651 8.81743359 4.95179097 0 1 C0 0.67 0 0.34 0 0 Z " fill="#067CCD" transform="translate(836,242)"/>
<path d="M0 0 C1 3 1 3 -0.265625 5.86328125 C-5.46039137 14.8927669 -11.30810953 23.02168326 -18 31 C-18.79535156 31.95003906 -19.59070313 32.90007813 -20.41015625 33.87890625 C-24.29754274 38.38714575 -24.29754274 38.38714575 -26 40 C-26.66 40 -27.32 40 -28 40 C-28.22816406 40.57234375 -28.45632813 41.1446875 -28.69140625 41.734375 C-31.47179414 46.5481809 -36.663074 49.64596248 -41 53 C-41.87269531 53.67546875 -42.74539063 54.3509375 -43.64453125 55.046875 C-48.9045856 58.98994423 -54.35360328 62.59924137 -59.9375 66.0625 C-60.57655273 66.46919922 -61.21560547 66.87589844 -61.87402344 67.29492188 C-66.43589656 70.05866676 -66.43589656 70.05866676 -69.44140625 69.74609375 C-69.95574219 69.49988281 -70.47007812 69.25367188 -71 69 C-70.18660156 68.56171875 -69.37320313 68.1234375 -68.53515625 67.671875 C-52.31526059 58.69528483 -38.09894808 48.1274329 -25 35 C-24.17113281 34.18273437 -23.34226562 33.36546875 -22.48828125 32.5234375 C-13.42996788 23.05855711 -6.36103306 11.40755334 0 0 Z " fill="#0679C9" transform="translate(940,696)"/>
<path d="M0 0 C-1.26691507 0.67408308 -2.53870749 1.33900497 -3.8125 2 C-4.52019531 2.37125 -5.22789062 2.7425 -5.95703125 3.125 C-8 4 -8 4 -11 4 C-11 4.66 -11 5.32 -11 6 C-12.48886719 6.69222656 -12.48886719 6.69222656 -14.0078125 7.3984375 C-23.77957844 12.04819973 -32.42922678 17.41243591 -41 24 C-42.44439453 25.09054687 -42.44439453 25.09054687 -43.91796875 26.203125 C-48.58476714 29.81524074 -52.33694996 33.39502281 -56 38 C-56.77085937 38.598125 -57.54171875 39.19625 -58.3359375 39.8125 C-61.26202625 42.21515352 -63.4539258 44.7929816 -65.8125 47.75 C-66.60269531 48.73484375 -67.39289062 49.7196875 -68.20703125 50.734375 C-68.79871094 51.48203125 -69.39039063 52.2296875 -70 53 C-70.33 52.34 -70.66 51.68 -71 51 C-59.14496887 34.97750059 -45.46986985 23.08388969 -29 12 C-28.1028125 11.38511719 -27.205625 10.77023438 -26.28125 10.13671875 C-20.39138066 6.13046022 -20.39138066 6.13046022 -17 5 C-13.70170968 3.40890819 -10.41248531 1.80093131 -7.12890625 0.1796875 C-4.04344263 -0.98362088 -2.964663 -1.26744806 0 0 Z " fill="#067ACC" transform="translate(693,243)"/>
<path d="M0 0 C4.48803166 0.57262827 8.05987568 1.73942556 12.1484375 3.66015625 C13.89169312 4.47347412 13.89169312 4.47347412 15.67016602 5.30322266 C16.9053325 5.88918108 18.14027283 6.47561642 19.375 7.0625 C20.64820507 7.66226738 21.9215621 8.26171225 23.19506836 8.86083984 C26.80247238 10.56194993 30.40186145 12.27938082 34 14 C34.8461084 14.40234863 35.6922168 14.80469727 36.56396484 15.21923828 C44.55909689 19.03751297 52.31148287 23.22202819 60 27.625 C60.77802979 28.06859863 61.55605957 28.51219727 62.35766602 28.96923828 C67.52153293 31.97514595 72.29804805 35.31498929 77 39 C76.505 39.99 76.505 39.99 76 41 C75.3915625 40.59910156 74.783125 40.19820313 74.15625 39.78515625 C57.31367275 28.86224953 39.3969046 19.03308872 21 11 C17.45421827 9.4466857 13.91392759 7.88135733 10.375 6.3125 C9.02088013 5.72275391 9.02088013 5.72275391 7.6394043 5.12109375 C6.37543823 4.56035156 6.37543823 4.56035156 5.0859375 3.98828125 C4.3232959 3.65352783 3.5606543 3.31877441 2.77490234 2.97387695 C1 2 1 2 0 0 Z " fill="#047BCE" transform="translate(814,456)"/>
<path d="M0 0 C4.91510778 0.40959232 9.38869116 1.0624426 14.125 2.4375 C30.84877735 6.76700581 48.85185883 6.32894472 66 6 C66 6.33 66 6.66 66 7 C58.55928537 8.17984997 51.19886782 8.28533042 43.6875 8.3125 C42.9733493 8.31545074 42.25919861 8.31840149 41.52340698 8.32144165 C30.23421011 8.3320591 19.81316173 7.38593953 9 4 C7.98550781 3.69191406 6.97101562 3.38382813 5.92578125 3.06640625 C3.93342776 2.42873109 1.96168928 1.72655158 0 1 C0 0.67 0 0.34 0 0 Z " fill="#067ACC" transform="translate(722,678)"/>
<path d="M0 0 C0.33 0 0.66 0 1 0 C0.96447021 0.70680908 0.92894043 1.41361816 0.89233398 2.1418457 C0.038741 19.85069377 0.06259266 37.28916557 1 55 C0.34 55 -0.32 55 -1 55 C-2.74870236 36.9971413 -4.12683504 18.9381589 -1 1 C-0.67 0.67 -0.34 0.34 0 0 Z " fill="#067DD0" transform="translate(596,358)"/>
<path d="M0 0 C3.56275648 3.56275648 6.34031718 6.62688028 9.25 10.625 C13.10248047 15.8718968 17.16436698 20.81470356 21.4453125 25.72265625 C21.95835937 26.47417969 22.47140625 27.22570312 23 28 C22.505 29.485 22.505 29.485 22 31 C16.9767455 25.45755838 12.42162429 19.70074844 8.0625 13.625 C7.47404297 12.81933594 6.88558594 12.01367188 6.27929688 11.18359375 C5.72435547 10.41402344 5.16941406 9.64445313 4.59765625 8.8515625 C4.09758057 8.15885254 3.59750488 7.46614258 3.08227539 6.75244141 C2 5 2 5 2 3 C-5.56159465 6.6302346 -12.79707766 10.70547414 -20 15 C-20.33 14.01 -20.66 13.02 -21 12 C-14.07 8.04 -7.14 4.08 0 0 Z " fill="#057BCD" transform="translate(656,618)"/>
<path d="M0 0 C0.33 0 0.66 0 1 0 C2.19626231 14.56781653 -2.13758805 28.42881521 -7.0625 42 C-7.29533691 42.65202393 -7.52817383 43.30404785 -7.76806641 43.97583008 C-9.23431199 47.79792486 -10.89578766 50.32970981 -14 53 C-11.37701396 44.95220193 -11.37701396 44.95220193 -10.0859375 41.69140625 C-4.88661341 28.4817414 -1.947621 14.04031259 0 0 Z " fill="#0679CA" transform="translate(955,642)"/>
<path d="M0 0 C4.06608725 1.36013482 6.45702149 3.13412729 9.5 6.125 C18.15220289 14.13439435 28.63562474 19.51664315 39 25 C38.67 25.66 38.34 26.32 38 27 C29.60510933 22.99003361 21.48413517 19.05975197 14.015625 13.4453125 C12.07097034 11.95620214 12.07097034 11.95620214 9.96484375 11.0546875 C7.51049602 9.73724438 6.10855819 8.11942659 4.3125 6 C3.71050781 5.29875 3.10851562 4.5975 2.48828125 3.875 C1 2 1 2 0 0 Z " fill="#047CCF" transform="translate(681,651)"/>
<path d="M0 0 C-2.76104098 2.76104098 -5.47455569 2.45772246 -9.1875 2.75 C-16.73963957 3.47967532 -23.92083868 5.05765303 -31.25 7 C-32.23766357 7.26135742 -33.22532715 7.52271484 -34.24291992 7.79199219 C-39.50604736 9.21671637 -39.50604736 9.21671637 -44.62011719 11.08984375 C-47 12 -47 12 -50 12 C-50 11.34 -50 10.68 -50 10 C-34.00368459 4.20423355 -17.22758413 -1.26055494 0 0 Z " fill="#067BCC" transform="translate(744,230)"/>
<path d="M0 0 C0.66 0.33 1.32 0.66 2 1 C1.5153125 1.74121094 1.030625 2.48242188 0.53125 3.24609375 C-7.83588368 16.39214801 -14.12444724 30.20926061 -19 45 C-19.33 45 -19.66 45 -20 45 C-18.87352655 33.31283793 -13.77268506 23.16071267 -8.375 12.875 C-7.8171582 11.80971069 -7.8171582 11.80971069 -7.24804688 10.72290039 C-5.14803304 6.82080985 -2.90474572 3.37791696 0 0 Z " fill="#067ACC" transform="translate(620,297)"/>
<path d="M0 0 C1.37128052 0.00169189 1.37128052 0.00169189 2.77026367 0.00341797 C3.73424072 0.01646973 4.69821777 0.02952148 5.69140625 0.04296875 C6.67536377 0.05086426 7.65932129 0.05875977 8.6730957 0.06689453 C28.86186075 0.30243842 28.86186075 0.30243842 33.25390625 3.23046875 C19.21616567 3.35847246 5.26968211 3.02569008 -8.74609375 2.23046875 C-5.69667993 0.4660308 -3.50958909 -0.01762918 0 0 Z " fill="#077DCE" transform="translate(756.74609375,227.76953125)"/>
<path d="M0 0 C0.78141357 0.11762695 1.56282715 0.23525391 2.36791992 0.35644531 C6.49288904 1.05548656 9.42853161 1.7039621 12.5625 4.6875 C7.65476441 4.16167119 2.7582608 3.58677152 -2.13671875 2.95214844 C-9.89152114 1.95140965 -17.63209475 1.19538596 -25.4375 0.6875 C-25.4375 0.3575 -25.4375 0.0275 -25.4375 -0.3125 C-16.8323378 -2.20106657 -8.62234146 -1.3604658 0 0 Z " fill="#0479CC" transform="translate(777.4375,327.3125)"/>
<path d="M0 0 C0 0.66 0 1.32 0 2 C-0.92941406 2.30292969 -1.85882812 2.60585938 -2.81640625 2.91796875 C-10.91998207 5.53905447 -10.91998207 5.53905447 -18.1875 9.875 C-19.115625 10.57625 -20.04375 11.2775 -21 12 C-21.99 11.67 -22.98 11.34 -24 11 C-9.02191781 0 -9.02191781 0 0 0 Z " fill="#057CD0" transform="translate(746,329)"/>
<path d="M0 0 C8.91765652 0.23080993 16.70624517 3.00318992 25 6 C25 6.66 25 7.32 25 8 C16.45923559 6.32234985 8.27435964 3.65997819 0 1 C0 0.67 0 0.34 0 0 Z " fill="#067ACC" transform="translate(810,234)"/>
<path d="M0 0 C0.66 0.33 1.32 0.66 2 1 C0.28133968 2.9684831 -1.44884125 4.9243097 -3.1875 6.875 C-3.67025391 7.43058594 -4.15300781 7.98617187 -4.65039062 8.55859375 C-7.52249465 11.75838749 -9.74502322 13.77095735 -14 15 C-14 14.34 -14 13.68 -14 13 C-12.4609375 11.484375 -12.4609375 11.484375 -10.375 9.75 C-6.72639996 6.65323448 -3.34103014 3.42455589 0 0 Z " fill="#057ACD" transform="translate(833,657)"/>
<path d="M0 0 C3.59584747 1.44930671 5.18832656 3.22752078 7.3125 6.4375 C7.84488281 7.21996094 8.37726562 8.00242187 8.92578125 8.80859375 C10 11 10 11 9 14 C8.01 13.67 7.02 13.34 6 13 C5.0625 10.9375 5.0625 10.9375 4 8 C2.71032642 5.31110527 1.35730552 2.65531129 0 0 Z " fill="#067AC9" transform="translate(912,305)"/>
<path d="M0 0 C2.22942748 0.14179038 4.45853628 0.28859698 6.6875 0.4375 C7.92886719 0.51871094 9.17023437 0.59992187 10.44921875 0.68359375 C13.38180337 0.94491317 16.13441617 1.34798379 19 2 C19 2.33 19 2.66 19 3 C16.95863605 3.05451714 14.91684144 3.09302485 12.875 3.125 C11.16957031 3.15980469 11.16957031 3.15980469 9.4296875 3.1953125 C5.94242233 2.99672109 3.2446138 2.2524801 0 1 C0 0.67 0 0.34 0 0 Z " fill="#0775C5" transform="translate(721,784)"/>
<path d="M0 0 C5.28 1.32 10.56 2.64 16 4 C16 4.33 16 4.66 16 5 C9.741346 5.5326514 5.54891215 3.81849506 0 1 C0 0.67 0 0.34 0 0 Z " fill="#0777C8" transform="translate(685,775)"/>
<path d="M0 0 C1.5067748 2.79738782 2.48224115 5.40322432 3.1875 8.5 C3.36667969 9.2528125 3.54585937 10.005625 3.73046875 10.78125 C4.01801942 13.14833379 3.72248395 14.74544015 3 17 C0.4084738 11.06108578 -0.40368295 6.45892714 0 0 Z " fill="#0776C8" transform="translate(597,414)"/>
<path d="M0 0 C0.33 0 0.66 0 1 0 C0.88512252 1.58409994 0.75765492 3.16728963 0.625 4.75 C0.52058594 6.07257813 0.52058594 6.07257813 0.4140625 7.421875 C0.00149945 9.99066382 -0.71160957 11.75841015 -2 14 C-2.3690205 4.58997722 -2.3690205 4.58997722 0 0 Z " fill="#0777C9" transform="translate(599,343)"/>
<path d="M0 0 C1.48199902 0.44909061 2.96055236 0.90956564 4.4375 1.375 C5.26121094 1.63023437 6.08492187 1.88546875 6.93359375 2.1484375 C9 3 9 3 10 5 C5.2482602 4.56802365 3.07999946 3.67230705 0 0 Z " fill="#0478CC" transform="translate(702,530)"/>
<path d="M0 0 C1.98 0 3.96 0 6 0 C6 0.33 6 0.66 6 1 C4.02 1 2.04 1 0 1 C0 0.67 0 0.34 0 0 Z " fill="#0981CF" transform="translate(744,790)"/>
<path d="M0 0 C4 1 4 1 4 1 Z " fill="#0980CF" transform="translate(736,789)"/>
<path d="M0 0 C0.99 0.495 0.99 0.495 2 1 C1.67 1.66 1.34 2.32 1 3 C0.67 2.01 0.34 1.02 0 0 Z " fill="#0A83D3" transform="translate(602,443)"/>
<path d="M0 0 C3 1 3 1 3 1 Z " fill="#0E76BF" transform="translate(100,343)"/>
<path d="" fill="#0585DB" transform="translate(0,0)"/>
<path d="M0 0 C2 1 2 1 2 1 Z " fill="#0782D4" transform="translate(128,343)"/>
<path d="M0 0 C2 1 2 1 2 1 Z " fill="#0687D5" transform="translate(689,240)"/>
<path d="M0 0 C2 1 2 1 2 1 Z " fill="#0683D4" transform="translate(712,232)"/>
<path d="" fill="#17252E" transform="translate(0,0)"/>
<path d="" fill="#1A2A35" transform="translate(0,0)"/>
<path d="" fill="#0A81D0" transform="translate(0,0)"/>
<path d="" fill="#0981D1" transform="translate(0,0)"/>
<path d="" fill="#0981D1" transform="translate(0,0)"/>
<path d="" fill="#0881D0" transform="translate(0,0)"/>
<path d="" fill="#0B80CF" transform="translate(0,0)"/>
<path d="" fill="#0C83CF" transform="translate(0,0)"/>
<path d="" fill="#0981D1" transform="translate(0,0)"/>
<path d="" fill="#077FD2" transform="translate(0,0)"/>
<path d="" fill="#0B81D1" transform="translate(0,0)"/>
<path d="" fill="#0B83D1" transform="translate(0,0)"/>
<path d="" fill="#1370B0" transform="translate(0,0)"/>
<path d="" fill="#0A81CE" transform="translate(0,0)"/>
<path d="" fill="#0F7FCD" transform="translate(0,0)"/>
<path d="" fill="#0C80CD" transform="translate(0,0)"/>
<path d="" fill="#0E7BC6" transform="translate(0,0)"/>
<path d="" fill="#0F7AC5" transform="translate(0,0)"/>
<path d="" fill="#0D79C3" transform="translate(0,0)"/>
<path d="" fill="#0588D9" transform="translate(0,0)"/>
<path d="" fill="#0D85D2" transform="translate(0,0)"/>
<path d="" fill="#0787DB" transform="translate(0,0)"/>
<path d="" fill="#0688DE" transform="translate(0,0)"/>
<path d="" fill="#0787DC" transform="translate(0,0)"/>
<path d="" fill="#0A84D4" transform="translate(0,0)"/>
<path d="" fill="#0982D5" transform="translate(0,0)"/>
<path d="" fill="#0885D8" transform="translate(0,0)"/>
<path d="" fill="#0A82D6" transform="translate(0,0)"/>
<path d="" fill="#0582D3" transform="translate(0,0)"/>
<path d="" fill="#0B84D4" transform="translate(0,0)"/>
<path d="" fill="#0A80D2" transform="translate(0,0)"/>
<path d="" fill="#0A83D1" transform="translate(0,0)"/>
<path d="" fill="#0A81D3" transform="translate(0,0)"/>
<path d="" fill="#0D83D4" transform="translate(0,0)"/>
<path d="" fill="#0A85D5" transform="translate(0,0)"/>
<path d="" fill="#0A84D4" transform="translate(0,0)"/>
<path d="" fill="#0A87D7" transform="translate(0,0)"/>
<path d="" fill="#077DD0" transform="translate(0,0)"/>
<path d="" fill="#0584DB" transform="translate(0,0)"/>
<path d="" fill="#0285DB" transform="translate(0,0)"/>
<path d="" fill="#0284DC" transform="translate(0,0)"/>
<path d="" fill="#0785DE" transform="translate(0,0)"/>
<path d="" fill="#0783D9" transform="translate(0,0)"/>
<path d="" fill="#0782D9" transform="translate(0,0)"/>
<path d="" fill="#0581D8" transform="translate(0,0)"/>
<path d="" fill="#0689DD" transform="translate(0,0)"/>
<path d="" fill="#0788DC" transform="translate(0,0)"/>
<path d="" fill="#0585DC" transform="translate(0,0)"/>
<path d="" fill="#0882D0" transform="translate(0,0)"/>
<path d="" fill="#0682D1" transform="translate(0,0)"/>
<path d="" fill="#282C30" transform="translate(0,0)"/>
</svg>
